<svg width="179" height="178" viewBox="0 0 179 178" fill="none" xmlns="http://www.w3.org/2000/svg">
<rect width="4.29385" height="4.29385" fill="#9D9FA2"/>
<rect x="24.957" width="4.29385" height="4.29385" fill="#9D9FA2"/>
<rect x="49.918" width="4.29385" height="4.29385" fill="#9D9FA2"/>
<rect x="74.875" width="4.29385" height="4.29385" fill="#9D9FA2"/>
<rect x="99.832" width="4.29385" height="4.29385" fill="#9D9FA2"/>
<rect x="124.789" width="4.29385" height="4.29385" fill="#9D9FA2"/>
<rect x="149.75" width="4.29385" height="4.29385" fill="#9D9FA2"/>
<rect x="174.707" width="4.29385" height="4.29385" fill="#9D9FA2"/>
<rect y="24.6897" width="4.29385" height="4.29385" fill="#9D9FA2"/>
<rect x="24.957" y="24.6897" width="4.29385" height="4.29385" fill="#9D9FA2"/>
<rect x="49.918" y="24.6897" width="4.29385" height="4.29385" fill="#9D9FA2"/>
<rect x="74.875" y="24.6897" width="4.29385" height="4.29385" fill="#9D9FA2"/>
<rect x="99.832" y="24.6897" width="4.29385" height="4.29385" fill="#9D9FA2"/>
<rect x="124.789" y="24.6897" width="4.29385" height="4.29385" fill="#9D9FA2"/>
<rect x="149.75" y="24.6897" width="4.29385" height="4.29385" fill="#9D9FA2"/>
<rect x="174.707" y="24.6897" width="4.29385" height="4.29385" fill="#9D9FA2"/>
<rect y="49.3794" width="4.29385" height="4.29385" fill="#9D9FA2"/>
<rect x="24.957" y="49.3794" width="4.29385" height="4.29385" fill="#9D9FA2"/>
<rect x="49.918" y="49.3794" width="4.29385" height="4.29385" fill="#9D9FA2"/>
<rect x="74.875" y="49.3794" width="4.29385" height="4.29385" fill="#9D9FA2"/>
<rect x="99.832" y="49.3794" width="4.29385" height="4.29385" fill="#9D9FA2"/>
<rect x="124.789" y="49.3794" width="4.29385" height="4.29385" fill="#9D9FA2"/>
<rect x="149.75" y="49.3794" width="4.29385" height="4.29385" fill="#9D9FA2"/>
<rect x="174.707" y="49.3794" width="4.29385" height="4.29385" fill="#9D9FA2"/>
<rect y="74.0688" width="4.29385" height="4.29385" fill="#9D9FA2"/>
<rect x="24.957" y="74.0688" width="4.29385" height="4.29385" fill="#9D9FA2"/>
<rect x="49.918" y="74.0688" width="4.29385" height="4.29385" fill="#9D9FA2"/>
<rect x="74.875" y="74.0688" width="4.29385" height="4.29385" fill="#9D9FA2"/>
<rect x="99.832" y="74.0688" width="4.29385" height="4.29385" fill="#9D9FA2"/>
<rect x="124.789" y="74.0688" width="4.29385" height="4.29385" fill="#9D9FA2"/>
<rect x="149.75" y="74.0688" width="4.29385" height="4.29385" fill="#9D9FA2"/>
<rect x="174.707" y="74.0688" width="4.29385" height="4.29385" fill="#9D9FA2"/>
<rect y="98.7585" width="4.29385" height="4.29385" fill="#9D9FA2"/>
<rect x="24.957" y="98.7585" width="4.29385" height="4.29385" fill="#9D9FA2"/>
<rect x="49.918" y="98.7585" width="4.29385" height="4.29385" fill="#9D9FA2"/>
<rect x="74.875" y="98.7585" width="4.29385" height="4.29385" fill="#9D9FA2"/>
<rect x="99.832" y="98.7585" width="4.29385" height="4.29385" fill="#9D9FA2"/>
<rect x="124.789" y="98.7585" width="4.29385" height="4.29385" fill="#9D9FA2"/>
<rect x="149.75" y="98.7585" width="4.29385" height="4.29385" fill="#9D9FA2"/>
<rect x="174.707" y="98.7585" width="4.29385" height="4.29385" fill="#9D9FA2"/>
<rect y="123.448" width="4.29385" height="4.29385" fill="#9D9FA2"/>
<rect x="24.957" y="123.448" width="4.29385" height="4.29385" fill="#9D9FA2"/>
<rect x="49.918" y="123.448" width="4.29385" height="4.29385" fill="#9D9FA2"/>
<rect x="74.875" y="123.448" width="4.29385" height="4.29385" fill="#9D9FA2"/>
<rect x="99.832" y="123.448" width="4.29385" height="4.29385" fill="#9D9FA2"/>
<rect x="124.789" y="123.448" width="4.29385" height="4.29385" fill="#9D9FA2"/>
<rect x="149.75" y="123.448" width="4.29385" height="4.29385" fill="#9D9FA2"/>
<rect x="174.707" y="123.448" width="4.29385" height="4.29385" fill="#9D9FA2"/>
<rect y="148.138" width="4.29385" height="4.29385" fill="#9D9FA2"/>
<rect x="24.957" y="148.138" width="4.29385" height="4.29385" fill="#9D9FA2"/>
<rect x="49.918" y="148.138" width="4.29385" height="4.29385" fill="#9D9FA2"/>
<rect x="74.875" y="148.138" width="4.29385" height="4.29385" fill="#9D9FA2"/>
<rect x="99.832" y="148.138" width="4.29385" height="4.29385" fill="#9D9FA2"/>
<rect x="124.789" y="148.138" width="4.29385" height="4.29385" fill="#9D9FA2"/>
<rect x="149.75" y="148.138" width="4.29385" height="4.29385" fill="#9D9FA2"/>
<rect x="174.707" y="148.138" width="4.29385" height="4.29385" fill="#9D9FA2"/>
<rect y="172.828" width="4.29385" height="4.29385" fill="#9D9FA2"/>
<rect x="24.957" y="172.828" width="4.29385" height="4.29385" fill="#9D9FA2"/>
<rect x="49.918" y="172.828" width="4.29385" height="4.29385" fill="#9D9FA2"/>
<rect x="74.875" y="172.828" width="4.29385" height="4.29385" fill="#9D9FA2"/>
<rect x="99.832" y="172.828" width="4.29385" height="4.29385" fill="#9D9FA2"/>
<rect x="124.789" y="172.828" width="4.29385" height="4.29385" fill="#9D9FA2"/>
<rect x="149.75" y="172.828" width="4.29385" height="4.29385" fill="#9D9FA2"/>
<rect x="174.707" y="172.828" width="4.29385" height="4.29385" fill="#9D9FA2"/>
</svg>
