<svg width="207" height="121" viewBox="0 0 207 121" fill="none" xmlns="http://www.w3.org/2000/svg">
<path d="M67.8332 64.4703H71.0334V73.3416H67.8332V64.4703ZM81.8892 64.4703H84.9639L87.8504 69.4408H87.9132C87.7877 68.6858 87.6621 67.9308 87.6621 67.1758V64.5333H90.7369V73.3416H87.6621L84.8384 68.6858H84.7757C84.9012 69.252 84.9639 69.8812 84.9639 70.4474V73.3416H81.8892V64.4703ZM100.4 70.1958L100.589 70.3216C101.153 70.8249 101.844 71.0766 102.597 71.1395C102.91 71.1395 103.412 71.0137 103.412 70.6362C103.412 70.2587 102.973 70.1958 102.722 70.1328L102.095 70.007C100.84 69.7553 99.7729 69.0633 99.7729 67.6162C99.7729 65.477 101.718 64.3445 103.601 64.3445C104.605 64.3445 105.546 64.5962 106.424 65.0995L105.546 67.3645C104.981 66.9241 104.354 66.7353 103.663 66.6724C103.412 66.6724 102.973 66.7983 102.973 67.1758C102.973 67.5533 103.35 67.5533 103.601 67.6162L104.354 67.8049C105.734 68.1195 106.738 68.8745 106.738 70.3845C106.738 72.5237 104.793 73.5933 102.91 73.5933C101.718 73.5933 100.589 73.2787 99.5219 72.7753L100.4 70.1958ZM116.715 64.4703H123.492V67.3645L121.735 67.3016V73.4045H118.535V67.3016L116.778 67.3645V64.4703H116.715ZM134.787 64.4703H137.988V73.3416H134.787V64.4703ZM149.471 64.4703H156.248V67.3645L154.491 67.3016V73.4045H151.291V67.3016L149.534 67.3645V64.4703H149.471ZM174.32 64.4703V69.7553C174.32 72.3349 172.688 73.5303 170.178 73.5303C167.668 73.5303 166.037 72.3349 166.037 69.7553V64.4703H169.237V69.4408C169.237 70.1328 169.237 70.762 170.116 70.762C170.994 70.762 170.994 70.1328 170.994 69.4408V64.4703H174.32ZM182.917 64.4703H189.694V67.3645L187.937 67.3016V73.4045H184.736V67.3016L182.979 67.3645V64.4703H182.917ZM200.236 64.4703H206.197V66.9241H203.499V67.8049H206.009V70.1328H203.499V71.0137H206.322V73.4045H200.236V64.4703ZM71.0962 26.7833V42.7641C71.0962 50.6287 66.1389 54.2149 58.6089 54.2149C51.0789 54.2149 46.1217 50.6287 46.1217 42.7641V26.7833H55.9106V41.8203C55.9106 43.9595 55.9734 45.7841 58.6089 45.7841C61.2444 45.7841 61.3071 43.8966 61.3071 41.8203V26.7833H71.0962ZM81.3244 26.7833H93.1842C99.2709 26.7833 104.416 29.3628 104.416 36.1578C104.416 40.2474 102.848 41.9462 99.2082 43.2045V43.3933C99.8357 43.8337 100.4 44.3999 100.84 45.0291L106.675 53.8374H95.3804L91.1134 45.1549H90.9251V53.8374H81.3244V26.7833ZM90.8624 38.7374H91.5527C93.1842 38.7374 94.7529 38.4858 94.7529 36.4724C94.7529 34.4591 93.3097 34.1445 91.6154 34.1445H90.8624V38.7374ZM114.143 26.7833H125.563C130.771 26.7833 136.105 28.0416 136.105 34.2703C136.105 36.6612 134.913 38.9891 132.591 39.7441V39.9328C135.54 41.0024 137.36 43.1416 137.36 46.3503C137.36 51.887 132.215 53.7745 127.508 53.7745H114.205V26.7833H114.143ZM124.12 37.1645C125.563 37.1645 127.132 37.0387 127.132 35.1512C127.132 33.1379 125.312 33.2637 123.869 33.2637H123.179V37.1645H124.12ZM123.241 47.357H124.371C126.002 47.357 128.324 47.2941 128.324 45.092C128.324 42.8899 125.814 42.8899 124.245 42.8899H123.304L123.241 47.357ZM153.299 53.7745H142.945L152.295 26.7833H163.15L172.751 53.8374H162.397L161.519 50.4399H154.114L153.299 53.7745ZM159.762 44.0224L158.632 39.2408C158.319 38.1083 158.193 36.9128 158.005 35.7803H157.628L155.871 44.0224H159.762ZM179.214 26.7833H188.627L197.412 41.7574H197.726C197.286 39.4924 196.973 37.1645 196.91 34.8995V26.7833H206.26V53.8374H196.91L188.313 39.6183H187.999C188.376 41.3799 188.564 43.2045 188.627 45.0291V53.8374H179.214V26.7833ZM117.97 118.075H120.731V120.844H117.97V118.075ZM101.279 118.075H104.04V120.844H101.279V118.075ZM51.0789 118.075H53.8399V120.844H51.0789V118.075ZM67.7704 118.075H70.5314V120.844H67.7704V118.075ZM84.5247 118.075H87.2857V120.844H84.5247V118.075ZM34.3246 118.075H37.0857V120.844H34.3246V118.075ZM17.5704 118.075H20.3314V120.844H17.5704V118.075ZM0.878906 118.075H3.63991V120.844H0.878906V118.075ZM101.279 17.4087H104.04V20.177H101.279V17.4087ZM117.97 17.4087H120.731V20.177H117.97V17.4087ZM51.0789 17.4087H53.8399V20.177H51.0789V17.4087ZM67.7704 17.4087H70.5314V20.177H67.7704V17.4087ZM84.5247 17.4087H87.2857V20.177H84.5247V17.4087ZM34.3246 17.4087H37.0857V20.177H34.3246V17.4087ZM101.279 84.5408H104.04V87.3091H101.279V84.5408ZM117.97 84.5408H120.731V87.3091H117.97V84.5408ZM51.0789 84.5408H53.8399V87.3091H51.0789V84.5408ZM67.7704 84.5408H70.5314V87.3091H67.7704V84.5408ZM84.5247 84.5408H87.2857V87.3091H84.5247V84.5408ZM34.3246 84.5408H37.0857V87.3091H34.3246V84.5408ZM34.3246 67.742H37.0857V70.5103H34.3246V67.742ZM34.3246 51.0062H37.0857V53.7745H34.3246V51.0062ZM34.3246 34.2074H37.0857V36.9758H34.3246V34.2074Z" fill="white"/>
<path d="M84.5247 17.4087H87.2857V20.177H84.5247V17.4087ZM101.279 17.4087H104.04V20.177H101.279V17.4087ZM117.97 17.4087H120.731V20.177H117.97V17.4087ZM34.3246 17.4087H37.0857V20.177H34.3246V17.4087ZM51.0789 17.4087H53.8399V20.177H51.0789V17.4087ZM67.7704 17.4087H70.5314V20.177H67.7704V17.4087ZM17.5704 17.4087H20.3314V20.177H17.5704V17.4087ZM17.5704 84.5408H20.3314V87.3091H17.5704V84.5408ZM17.5704 67.742H20.3314V70.5104H17.5704V67.742ZM17.5704 51.0062H20.3314V53.7745H17.5704V51.0062ZM17.5704 34.2074H20.3314V36.9758H17.5704V34.2074Z" fill="white"/>
<path d="M67.7704 17.4087H70.5314V20.177H67.7704V17.4087ZM84.5247 17.4087H87.2857V20.177H84.5247V17.4087ZM101.279 17.4087H104.04V20.177H101.279V17.4087ZM117.97 17.4087H120.731V20.177H117.97V17.4087ZM17.5704 17.4087H20.3314V20.177H17.5704V17.4087ZM34.3246 17.4087H37.0857V20.177H34.3246V17.4087ZM51.0789 17.4087H53.8399V20.177H51.0789V17.4087ZM101.279 101.34H104.04V104.108H101.279V101.34ZM117.97 101.34H120.731V104.108H117.97V101.34ZM51.0789 101.34H53.8399V104.108H51.0789V101.34ZM67.7704 101.34H70.5314V104.108H67.7704V101.34ZM84.5247 101.34H87.2857V104.108H84.5247V101.34ZM34.3247 101.34H37.0857V104.108H34.3247V101.34ZM17.5704 101.34H20.3314V104.108H17.5704V101.34ZM0.878906 17.4087H3.63991V20.177H0.878906V17.4087ZM0.878906 84.5408H3.63991V87.3091H0.878906V84.5408ZM0.878906 101.34H3.63991V104.108H0.878906V101.34ZM0.878906 67.742H3.63991V70.5103H0.878906V67.742ZM0.878906 51.0062H3.63991V53.7745H0.878906V51.0062ZM0.878906 34.2074H3.63991V36.9758H0.878906V34.2074ZM51.0789 67.742H53.8399V70.5103H51.0789V67.742ZM101.279 0.672852H104.04V3.44118H101.279V0.672852ZM117.97 0.672852H120.731V3.44118H117.97V0.672852ZM51.0789 0.672852H53.8399V3.44118H51.0789V0.672852ZM67.7704 0.672852H70.5314V3.44118H67.7704V0.672852ZM84.5247 0.672852H87.2857V3.44118H84.5247V0.672852ZM34.3247 0.672852H37.0857V3.44118H34.3247V0.672852ZM17.5704 0.672852H20.3314V3.44118H17.5704V0.672852ZM0.878906 0.672852H3.63991V3.44118H0.878906V0.672852Z" fill="white"/>
</svg>
